<?xml version="1.0" encoding="UTF-8"?><svg id="Layer_1" xmlns="http://www.w3.org/2000/svg" viewBox="0 0 2202.37 706.11"><defs><style>.cls-1{fill:none;}.cls-2{fill:#1f78ff;}</style></defs><rect class="cls-1" x="769.58" y="246.29" width="1178.75" height="459.82"/><path class="cls-2" d="M1029.62,531.23h-205.84v-11.7l164.67-232.08v-3.23h-73.05c-41.57,0-57.72,7.67-65.79,52.47h-12.92l4.44-70.63h197.37v11.3l-163.46,233.69v2.42h84.35c46.01,0,56.1-12.51,69.42-57.31h12.51l-11.71,75.07h.01Z"/><path class="cls-2" d="M1155.95,531.23h-90.81v-11.3c27.04,0,28.25-6.46,28.25-29.46v-112.61c0-17.35-6.05-18.97-17.76-18.97-5.65,0-10.09.81-10.09.81v-11.71l50.85-11.3h10.49v153.78c0,23.41,2.02,29.46,29.06,29.46v11.3h.01ZM1133.75,282.2c0,12.51-8.88,23.01-23.01,23.01s-23.01-10.49-23.01-23.01,8.88-22.6,23.01-22.6,23.01,10.49,23.01,22.6Z"/><path class="cls-2" d="M1272.18,531.23h-92.83v-11.7c26.64,0,28.25-6.46,28.25-29.06v-202.61c0-16.55-6.86-17.36-16.95-17.36-6.86,0-12.92.81-12.92.81v-10.9l53.28-14.13h10.09v244.18c0,23.41,2.02,29.06,31.08,29.06v11.7h0Z"/><path class="cls-2" d="M1386.4,531.23h-92.83v-11.7c26.64,0,28.25-6.46,28.25-29.06v-202.61c0-16.55-6.86-17.36-16.95-17.36-6.86,0-12.92.81-12.92.81v-10.9l53.28-14.13h10.09v244.18c0,23.41,2.02,29.06,31.08,29.06v11.7h0Z"/><path class="cls-2" d="M1589.41,431.94c0,67.81-37.13,103.32-89.6,103.32-56.51,0-90.41-36.33-90.41-101.71,0-58.52,35.92-98.08,90.41-98.08s89.6,36.73,89.6,96.46h0ZM1446.94,428.31c0,64.17,19.78,91.22,54.49,90.81,33.1,0,50.85-19.37,50.85-85.16,0-49.64-18.16-83.14-54.08-83.14-30.67,0-51.26,25.83-51.26,77.49Z"/><path class="cls-2" d="M1910.68,352.03c-15.74,0-21.79,5.65-29.87,26.64l-60.14,154.99h-19.37l-42.78-117.45h-1.61l-47.22,117.45h-18.57l-60.54-152.16c-10.49-25.02-16.55-29.46-34.31-29.46v-11.7h86.78v11.7c-16.14,0-21.39,3.63-21.39,10.09,0,5.25,2.02,9.69,4.44,15.74l35.11,89.2,7.26,23.41h2.83l8.48-23.41,29.06-73.46-4.44-12.11c-9.69-26.23-15.74-29.46-33.5-29.46v-11.7h84.35v11.7c-15.34,0-20.18,3.63-20.18,10.09,0,4.84,1.62,10.49,3.63,16.55l32.69,88.39,7.27,23.41h2.42l8.07-23.41,31.89-90.41c.4-2.02,2.42-7.67,2.42-14.53,0-7.67-7.67-10.09-22.6-10.09v-11.7h69.82v11.7h0Z"/><rect class="cls-1" y="0" width="912.33" height="459.82"/><path class="cls-2" d="M236.21,284.94v-12.11c31.08,0,35.92-6.46,35.92-35.92V62.96h-1.61l-94.04,221.99h-9.69L71.54,63.36h-1.61v162.65c0,41.57,6.05,46.82,36.73,46.82v12.11H11.8v-12.11c32.69,0,38.34-5.25,38.34-46.82V69.01c0-30.27-5.65-37.13-37.54-37.13v-12.11h82.34l85.16,203.02h1.61L266.47,19.77h76.69v12.11c-28.66,0-35.11,6.86-35.11,36.73v168.3c0,29.46,6.46,35.92,35.52,35.92v12.11h-107.36,0Z"/><path class="cls-2" d="M465.45,284.94h-90.81v-11.3c27.04,0,28.25-6.46,28.25-29.46v-112.61c0-17.35-6.05-18.97-17.76-18.97-5.65,0-10.09.81-10.09.81v-11.71l50.85-11.3h10.49v153.78c0,23.41,2.02,29.46,29.06,29.46v11.3h.01ZM443.25,35.92c0,12.51-8.88,23.01-23.01,23.01s-23.01-10.49-23.01-23.01,8.88-22.6,23.01-22.6,23.01,10.49,23.01,22.6Z"/><path class="cls-2" d="M632.54,286.96h-9.28v-27.85h-1.61c-15.34,13.72-35.92,29.06-62.56,29.06-45.61,0-69.02-39.96-69.02-91.62,0-66.6,41.98-107.36,92.83-107.36,13.32,0,26.64,2.83,39.15,9.69v-52.87c0-17.76-2.02-21.39-17.76-21.39-3.63,0-10.49.81-10.49.81v-11.3l50.85-14.13h10.9v241.76c0,20.99,5.25,25.02,20.18,25.02h8.48v10.9l-51.66,9.28h-.01ZM622.05,137.63c-3.23-16.55-14.93-32.29-39.96-32.29-33.9,0-56.91,24.62-56.91,75.48,0,55.7,18.57,78.3,52.87,78.3,18.97,0,29.87-5.25,43.99-14.93v-106.55h.01Z"/><path class="cls-2" d="M850.08,286.96h-9.28v-27.85h-1.61c-15.34,13.72-35.92,29.06-62.56,29.06-45.61,0-69.02-39.96-69.02-91.62,0-66.6,41.98-107.36,92.83-107.36,13.32,0,26.64,2.83,39.15,9.69v-52.87c0-17.76-2.02-21.39-17.76-21.39-3.63,0-10.49.81-10.49.81v-11.3l50.85-14.13h10.9v241.76c0,20.99,5.25,25.02,20.18,25.02h8.48v10.9l-51.66,9.28h-.01ZM839.59,137.63c-3.23-16.55-14.93-32.29-39.96-32.29-33.9,0-56.91,24.62-56.91,75.48,0,55.7,18.57,78.3,52.87,78.3,18.97,0,29.87-5.25,43.99-14.93v-106.55h.01Z"/><rect class="cls-1" x="1607.78" y="239.8" width="594.58" height="279.33"/><path class="cls-2" d="M1617.81,329.8v-90h19.97v30c.41-3.38,1.45-5.89,3.12-7.55,1.67-1.66,3.98-2.48,6.91-2.48h10.03c5.47,0,10.16,1.98,14.09,5.93,3.92,3.95,5.88,8.66,5.88,14.13v30c0,5.41-1.96,10.09-5.88,14.04-3.92,3.95-8.62,5.93-14.09,5.93h-40.03ZM1637.78,319.77h10.03c2.78,0,5.15-.98,7.1-2.95s2.93-4.3,2.93-6.98v-30c0-2.75-.99-5.11-2.98-7.08s-4.34-2.95-7.05-2.95-5.11.98-7.08,2.95-2.95,4.33-2.95,7.08v39.94Z"/><path class="cls-2" d="M1757.78,299.8h-40.03v10.03c0,2.69.98,5.02,2.93,6.98s4.32,2.95,7.1,2.95h10.03c6.62,0,9.94-3.31,9.94-9.94h10.03c-1.56,13.31-8.22,19.97-19.97,19.97h-20.06c-5.47,0-10.16-1.96-14.09-5.88-3.92-3.92-5.88-8.62-5.88-14.09v-30c0-5.53,1.97-10.26,5.91-14.18,3.94-3.92,8.62-5.88,14.06-5.88h20.06c5.47,0,10.16,1.98,14.09,5.93,3.92,3.95,5.88,8.66,5.88,14.13v19.97ZM1717.75,289.77h20.06v-9.94c0-2.75-.99-5.11-2.98-7.08s-4.34-2.95-7.05-2.95-5.11.98-7.08,2.95-2.95,4.33-2.95,7.08v9.94Z"/><path class="cls-2" d="M1787.78,239.8h19.97v19.97h10.03v10.03h-10.03v40.03c0,3.22,1.06,5.68,3.19,7.38,2.12,1.7,4.09,2.55,5.91,2.55h.94v10.03h-10.03c-5.5,0-10.2-1.96-14.11-5.88-3.91-3.92-5.86-8.62-5.86-14.09v-40.03h-10.03v-10.03h10.03v-19.97Z"/><path class="cls-2" d="M1877.78,289.77v-9.94c0-2.75-.99-5.11-2.98-7.08s-4.34-2.95-7.05-2.95h-10.03c-5.91,0-9.22,3.34-9.94,10.03h-10.03c1.53-13.38,8.19-20.06,19.97-20.06h20.06c5.47,0,10.16,1.98,14.09,5.93,3.92,3.95,5.88,8.66,5.88,14.13v49.97h-19.97v-10.03c-.78,6.69-4.12,10.03-10.03,10.03h-10.03c-5.47,0-10.16-1.96-14.09-5.88-3.92-3.92-5.88-8.62-5.88-14.09v-.09c0-5.47,1.97-10.16,5.91-14.09,3.94-3.92,8.62-5.88,14.06-5.88h20.06ZM1877.78,299.8h-10.03c-2.75,0-5.11.98-7.08,2.93-1.97,1.95-2.95,4.29-2.95,7.01v.09c0,2.69.98,5.02,2.93,6.98s4.32,2.95,7.1,2.95,5.15-.98,7.1-2.95,2.93-4.3,2.93-6.98v-10.03Z"/></svg>